<svg clip-rule="evenodd" fill-rule="evenodd" stroke-linejoin="round" stroke-miterlimit="1.41421" viewBox="0 0 202 41" xmlns="http://www.w3.org/2000/svg" xmlns:xlink="http://www.w3.org/1999/xlink"><clipPath id="a"><path clip-rule="evenodd" d="m0 0h201.652v40.23h-201.652z"/></clipPath><path d="m0 0h201.652v40.23h-201.652z" fill="none"/><g clip-path="url(#a)" fill-rule="nonzero"><path d="m38.5 12.83c-3-7.2-10.1-12.3-18.3-12.3-11 0-19.9 8.9-19.9 19.8 0 1.8.2 3.5.7 5.1h2.2c.6 0 1.4-.7 1.6-1.2l3.9-9.8c.5-1.2 1.7-2.1 3-2.1s2.5.8 3 2.1l6.2 15.6c.3.7 1.1 1.2 1.7 1.2h1.3c.3 0 .6.2.8.5l.5 1.4c.1.3 0 .5-.3.5h-4.2c-1.8 0-3.9-1.5-4.6-3.3l-4.4-10.9c-.4-1.1-.8-2.2-1.1-3.3-.3 1.1-.6 2.2-1.1 3.3l-2.1 5.4c-.7 1.7-2.6 3.1-4.4 3.1h-1.3c3 7.2 10.1 12.3 18.3 12.3 10.9 0 19.8-8.9 19.8-19.8 0-1.8-.2-3.5-.7-5.1h-2.2c-.6 0-1.4.7-1.6 1.2l-3.9 9.8c-.5 1.2-1.7 2.1-3 2.1s-2.5-.8-3-2.1l-6.2-15.6c-.3-.7-1.1-1.2-1.7-1.2h-1.3c-.3 0-.6-.2-.8-.5l-.4-1.6c-.1-.3 0-.5.3-.5h4.2c1.8 0 3.9 1.5 4.6 3.3l4.4 11.1c.4 1.1.8 2.2 1.1 3.3.3-1.1.6-2.2 1.1-3.3l2.1-5.4c.7-1.7 2.6-3.1 4.4-3.1z" fill="#ffd600"/><path d="m186 12.03 1.7 4.3c.4 1 .6 1.9.9 2.9.3-1 .5-1.9.9-2.9l1.7-4.3c.4-1 1.4-1.7 2.5-1.7s2.1.7 2.5 1.7l5.4 13.6c1 2.5-.2 4.6-2.7 4.6-2 0-2.2 0-4.2 0-.3 0-.4-.2-.3-.5l.5-1.3c.1-.3.4-.5.7-.5h2.4l-4.2-10.6c-.4-1-.6-1.9-.9-2.9-.3 1-.5 1.9-.9 2.9l-4.9 12.4c-.1.3-.4.5-.7.5h-1.8c-.3 0-.4-.2-.3-.5.7-1.8 1.4-3.6 2.1-5.4l-2.8-7c-.4-1-.6-1.9-.9-2.9-.3 1-.5 1.9-.9 2.9l-3.9 10c-.6 1.6-2.5 2.9-4.1 2.9h-2.1c-.3 0-.4-.2-.3-.5l.5-1.3c.1-.3.4-.5.7-.5h1.2c.6 0 1.3-.6 1.5-1.1l5.8-14.8c.4-1 1.4-1.7 2.5-1.7 1 0 2 .7 2.4 1.7zm-59.8 2.2 5.4 13.7h-10.2l1.9-4.9c.1-.3 0-.5-.3-.5h-1.8c-.3 0-.6.2-.7.5l-1.6 4.1c-.7 1.7.1 3.1 1.8 3.1h11.8c2.5 0 3.8-2.1 2.7-4.6l-5-12.8h2.3c.3 0 .6-.2.7-.5l.5-1.3c.1-.3 0-.5-.3-.5h-5c-2.1 0-3.1 1.6-2.2 3.7zm-67.6-2.2 5.8 14.7c.3.6 1 1.2 1.6 1.2h.4c.3 0 .6.2.7.5l.5 1.3c.1.3 0 .5-.3.5h-3c-1.7 0-3.6-1.4-4.3-3.1-1.3-3.3-2.6-6.6-3.9-9.8-.4-1-.6-1.9-.9-2.9-.3 1-.5 1.9-.9 2.9-1.4 3.5-2.8 7.1-4.2 10.6h3.9c.3 0 .6.2.7.5l.5 1.3c.1.3 0 .5-.3.5h-5.2c-1.9 0-2.8-1.5-2-3.4l5.9-14.8c.4-1 1.4-1.7 2.5-1.7 1.2 0 2.1.7 2.5 1.7zm96.4-1.5c.3 0 .4.2.3.5l-.5 1.3c-.1.3-.4.5-.7.5h-5.2l-5.9 15.1h6.1c.3 0 .4.2.3.5l-.5 1.3c-.1.3-.4.5-.7.5h-6.1c-2.5 0-3.8-2.1-2.7-4.6l5-12.8h-6.4c-.3 0-.4-.2-.3-.5l.5-1.3c.1-.3.4-.5.7-.5zm-65 3.7 5.4 13.7h-10.2l1.9-4.9c.1-.3 0-.5-.3-.5h-1.8c-.3 0-.6.2-.7.5l-1.6 4.1c-.7 1.7.1 3.1 1.8 3.1h11.8c2.5 0 3.8-2.1 2.7-4.6l-5-12.8h2.3c.3 0 .6-.2.7-.5l.5-1.3c.1-.3 0-.5-.3-.5h-5c-2 0-3 1.6-2.2 3.7zm18.4 15.4c-.9-.5-1.7-1.4-2.1-2.3l-5.3-13.4c-.7-1.9.1-3.4 2-3.4h3.2c.3 0 .4.2.3.5l-.5 1.3c-.1.3-.4.5-.7.5h-1.9l5.4 13.6c.1.3.3.6.6.8l5.4-13.7c.7-1.7 2.6-3.1 4.3-3.1h3c.3 0 .4.2.3.5l-.5 1.3c-.1.3-.4.5-.7.5h-.4c-.6 0-1.4.5-1.6 1.2l-7.5 19.1c-.7 1.7-2.6 3.1-4.3 3.1h-4c-.3 0-.4-.2-.3-.5l.5-1.3c.1-.3.4-.5.7-.5h1.4c.6 0 1.4-.5 1.6-1.2zm-36.2-.9c.4 1 1.4 1.7 2.5 1.7s2.1-.7 2.5-1.7c2-5 3.9-9.8 5.8-14.8.2-.5.9-1.1 1.5-1.1h1.2c.3 0 .6-.2.7-.5l.5-1.3c.1-.3 0-.5-.3-.5h-2.1c-1.6 0-3.5 1.3-4.1 2.9-1.3 3.3-2.6 6.7-3.9 10-.4 1-.6 1.9-.9 2.9-.3-1-.5-1.9-.9-2.9-1.3-3.3-2.6-6.6-3.9-9.8-.7-1.7-2.6-3.1-4.3-3.1h-3c-.3 0-.4.2-.3.5l.5 1.3c.1.3.4.5.7.5h.4c.6 0 1.4.5 1.6 1.2 1.9 4.9 3.8 9.7 5.8 14.7zm89.7-5.1h6.1c1.7 0 3.6-1.4 4.3-3.1l2.2-5.5c1-2.5-.2-4.6-2.7-4.6-3.6 0-5.7 0-9.2 0-1.7 0-3.6 1.4-4.3 3.1l-4.7 12c-1 2.5.2 4.6 2.7 4.6h9c.3 0 .6-.2.7-.5l.5-1.3c.1-.3 0-.5-.3-.5h-9l5.5-13.9c.3-.6 1-1.2 1.6-1.2h6.6l-2.9 7.4c-.3.6-1 1.2-1.6 1.2h-3.5c-.3 0-.6.2-.7.5l-.5 1.3c-.2.3-.1.5.2.5z"/></g></svg>