<svg clip-rule="evenodd" fill-rule="evenodd" stroke-linejoin="round" stroke-miterlimit="1.41421" viewBox="0 0 594 81" xmlns="http://www.w3.org/2000/svg" xmlns:xlink="http://www.w3.org/1999/xlink"><clipPath id="a"><path clip-rule="nonzero" d="m4.082 77.157h32.643v-28.272h-32.643z"/></clipPath><clipPath id="b"><path clip-rule="nonzero" d="m4.085 39.499h65.271v-37.642h-65.271v37.642z"/></clipPath><path d="m0 0h593.711v80.847h-593.711z" fill="none"/><g clip-path="url(#a)" opacity=".9"><path d="m4.082 58.31 32.642 18.848.001-9.423-32.643-18.853z" fill="#2b8c8c" fill-rule="nonzero"/></g><path d="m69.356 20.648-.002.003v-.003l-.467.27-32.162 18.584v9.424l24.469-14.135v28.24l8.16-4.697v-28.255l.002-.002z" fill="#2b8c8c" fill-rule="nonzero" opacity=".8"/><path d="m4.085 20.651-.004-.003v23.537l8.055 4.637 24.589 14.198v-9.424l-24.484-14.139v-4.669l24.484 14.138v-9.424l-32.64-18.854v.003z" fill="#2b8c8c" fill-rule="nonzero" opacity=".9"/><path d="m36.725 53.596v9.425l12.235-7.038v4.69l-12.235 7.062-.001 9.424 13.148-7.588 7.248-4.172v-23.559l-3.532 2.051z" fill="#2b8c8c" fill-rule="nonzero" opacity=".8"/><g clip-path="url(#b)" opacity=".7"><path d="m36.721 1.854 32.635 18.793-32.638 18.855-32.634-18.851 32.637-18.797z" fill="#2b8c8c" fill-rule="nonzero"/></g><g fill-rule="nonzero"><path d="m86.078 53.535c.814.762 4.728 4.016 10.931 4.016 6.609 0 11.337-4.322 11.337-9.609 0-6.202-5.033-8.998-10.931-11.388-4.219-1.728-6.456-3.508-6.456-6.406 0-1.881 1.474-4.575 5.745-4.575 2.948 0 6.507 2.338 6.863 2.542.712.457 1.373.152 1.779-.509.407-.61.865-1.321 1.271-1.932.509-.762.102-1.474-.305-1.728-.508-.356-4.321-3-9.405-3-8.084 0-11.134 5.44-11.134 9.406 0 5.897 4.067 8.592 9.253 10.778 5.033 2.084 7.677 4.016 7.677 7.066 0 2.593-2.237 4.728-5.745 4.728-3.915 0-7.83-3.253-8.135-3.507-.559-.458-1.271-.255-1.728.406-.458.661-.864 1.424-1.322 2.085-.508.864-.152 1.22.305 1.627z" fill="#010203"/><path d="m112.769 39.299c0 10.168 8.083 18.252 18.251 18.252s18.302-8.084 18.302-18.252c0-10.167-8.134-18.353-18.302-18.353s-18.251 8.186-18.251 18.353zm5.084 0c0-7.219 5.948-13.269 13.167-13.269 7.27 0 13.219 6.05 13.219 13.269 0 7.27-5.949 13.168-13.219 13.168-7.219 0-13.167-5.898-13.167-13.168z" fill="#010203"/><path d="m156.593 56.076c0 .509.406.966.965.966h3.305c.508 0 .966-.457.966-.966v-13.37h13.574c.509 0 .966-.458.966-.966v-2.796c0-.509-.457-.966-.966-.966h-13.574v-11.744h16.065c.56 0 .966-.458.966-.966v-2.847c0-.509-.406-.966-.966-.966h-20.336c-.559 0-.965.457-.965.966z" fill="#010203"/><path d="m190.248 56.076c0 .509.458.966.966.966h3.356c.508 0 .966-.457.966-.966v-29.842h8.286c.56 0 .966-.458.966-.966v-2.847c0-.509-.406-.966-.966-.966h-21.861c-.559 0-.965.457-.965.966v2.847c0 .508.406.966.965.966h8.287z" fill="#010203"/><path d="m216.634 56.839c.102.407.508.712.915.712h.814c.355 0 .762-.254.864-.559l8.795-25.268h.254l8.948 25.268c.102.305.508.559.864.559h.814c.406 0 .813-.305.915-.712l9.609-34.164c.203-.712-.204-1.22-.916-1.22h-3.406c-.407 0-.813.356-.915.712l-6.05 23.335h-.203l-8.389-23.996c-.101-.305-.457-.56-.864-.56h-.915c-.407 0-.763.255-.864.56l-8.287 23.996h-.204l-6.151-23.335c-.102-.356-.509-.712-.915-.712h-3.407c-.711 0-1.118.508-.915 1.22z" fill="#010203"/><path d="m250.747 57.042h3.203c.61 0 1.017-.406 1.17-.762 1.016-2.339 2.084-4.627 3.101-6.965h16.624l3.152 6.965c.204.457.56.762 1.17.762h3.203c.762 0 1.169-.66.864-1.321l-15.506-34.215c-.153-.305-.61-.56-.864-.56h-.509c-.254 0-.712.255-.864.56l-15.608 34.215c-.305.661.102 1.321.864 1.321zm9.457-12.099 6.202-13.93h.254l6.253 13.93z" fill="#010203"/><path d="m288.318 56.076c0 .509.407.966.966.966h3.304c.509 0 .966-.457.966-.966v-12.964h7.677l6.762 13.473c.101.203.406.457.813.457h3.966c.864 0 1.22-.813.864-1.474l-6.965-12.913c4.423-1.78 7.524-5.643 7.524-10.321 0-6.049-4.982-10.879-11.083-10.879h-13.828c-.559 0-.966.457-.966.966zm5.338-17.336v-12.354h9.049c3.305 0 6.203 2.746 6.203 6.05 0 3.508-2.898 6.304-6.203 6.304z" fill="#010203"/><path d="m322.126 56.076c0 .509.407.966.966.966h20.336c.559 0 .966-.457.966-.966v-2.796c0-.508-.407-.966-.966-.966h-16.065v-10.93h13.574c.508 0 .966-.407.966-.966v-2.847c0-.509-.458-.966-.966-.966h-13.574v-10.371h16.065c.559 0 .966-.458.966-.966v-2.847c0-.509-.407-.966-.966-.966h-20.336c-.559 0-.966.457-.966.966z" fill="#010203"/><path d="m360.815 55.873c-.102.712.254 1.169.966 1.169h3.305c.406 0 .864-.355.915-.711l3.66-22.726h.203l9.202 23.387c.102.305.458.559.865.559h.915c.457 0 .762-.254.864-.559l9.151-23.387h.153l3.762 22.726c.102.356.508.711.966.711h3.304c.712 0 1.068-.457.915-1.169l-6.253-34.164c-.101-.407-.508-.763-.915-.763h-.813c-.356 0-.763.255-.865.56l-10.574 25.979h-.204l-10.625-25.979c-.102-.305-.559-.56-.864-.56h-.814c-.406 0-.813.356-.915.763z" fill="#010203"/><path d="m403.52 57.042h3.203c.61 0 1.017-.406 1.169-.762 1.017-2.339 2.085-4.627 3.102-6.965h16.624l3.152 6.965c.204.457.559.762 1.17.762h3.202c.763 0 1.17-.66.865-1.321l-15.506-34.215c-.153-.305-.61-.56-.865-.56h-.508c-.254 0-.712.255-.864.56l-15.608 34.215c-.305.661.102 1.321.864 1.321zm9.456-12.099 6.203-13.93h.254l6.253 13.93z" fill="#010203"/><path d="m441.091 56.076c0 .509.457.966.966.966h3.202c.56 0 .966-.457.966-.966v-24.758h.051l22.065 26.233h1.321c.509 0 .966-.407.966-.915v-34.215c0-.509-.457-.966-.966-.966h-3.253c-.559 0-.966.457-.966.966v24.047h-.051l-22.064-25.522h-1.271c-.509 0-.966.407-.966.915z" fill="#010203"/><path d="m478.509 53.535c.813.762 4.728 4.016 10.93 4.016 6.609 0 11.337-4.322 11.337-9.609 0-6.202-5.033-8.998-10.93-11.388-4.22-1.728-6.457-3.508-6.457-6.406 0-1.881 1.475-4.575 5.745-4.575 2.949 0 6.507 2.338 6.863 2.542.712.457 1.373.152 1.78-.509.406-.61.864-1.321 1.271-1.932.508-.762.101-1.474-.305-1.728-.509-.356-4.322-3-9.406-3-8.083 0-11.133 5.44-11.133 9.406 0 5.897 4.067 8.592 9.252 10.778 5.033 2.084 7.677 4.016 7.677 7.066 0 2.593-2.237 4.728-5.745 4.728-3.914 0-7.829-3.253-8.134-3.507-.559-.458-1.271-.255-1.729.406-.457.661-.864 1.424-1.321 2.085-.509.864-.153 1.22.305 1.627z" fill="#010203"/><path d="m507.792 56.076c0 .509.458.966.966.966h3.356c.508 0 .965-.457.965-.966v-33.655c0-.509-.457-.966-.965-.966h-3.356c-.508 0-.966.457-.966.966z" fill="#010203"/><path d="m520.35 39.299c0 10.168 8.083 18.252 18.251 18.252s18.302-8.084 18.302-18.252c0-10.167-8.134-18.353-18.302-18.353s-18.251 8.186-18.251 18.353zm5.083 0c0-7.219 5.949-13.269 13.168-13.269 7.27 0 13.218 6.05 13.218 13.269 0 7.27-5.948 13.168-13.218 13.168-7.219 0-13.168-5.898-13.168-13.168z" fill="#010203"/><path d="m564.173 56.076c0 .509.458.966.966.966h3.203c.559 0 .966-.457.966-.966v-24.758h.051l22.064 26.233h1.322c.508 0 .966-.407.966-.915v-34.215c0-.509-.458-.966-.966-.966h-3.254c-.559 0-.966.457-.966.966v24.047h-.05l-22.065-25.522h-1.271c-.508 0-.966.407-.966.915z" fill="#010203"/></g></svg>